<mxfile host="app.diagrams.net" modified="2023-11-24T09:41:11.523Z" agent="Mozilla/5.0 (Windows NT 10.0; Win64; x64) AppleWebKit/537.36 (KHTML, like Gecko) Chrome/119.0.0.0 Safari/537.36" etag="ijeTR_WMi2EAPpTy4jtI" version="22.1.3" type="github">
  <diagram name="Page-1" id="74e2e168-ea6b-b213-b513-2b3c1d86103e">
    <mxGraphModel dx="1434" dy="789" grid="1" gridSize="10" guides="1" tooltips="1" connect="1" arrows="1" fold="1" page="1" pageScale="1" pageWidth="1700" pageHeight="1100" background="none" math="0" shadow="0">
      <root>
        <mxCell id="0" />
        <mxCell id="1" parent="0" />
        <mxCell id="gMvGEAITRKUhcUgfvkka-19" style="edgeStyle=orthogonalEdgeStyle;rounded=0;orthogonalLoop=1;jettySize=auto;html=1;entryX=0;entryY=0.5;entryDx=0;entryDy=0;" edge="1" parent="1" source="gMvGEAITRKUhcUgfvkka-14" target="gMvGEAITRKUhcUgfvkka-17">
          <mxGeometry relative="1" as="geometry" />
        </mxCell>
        <mxCell id="gMvGEAITRKUhcUgfvkka-14" value="登录" style="rounded=1;whiteSpace=wrap;html=1;" vertex="1" parent="1">
          <mxGeometry x="160" y="280" width="120" height="60" as="geometry" />
        </mxCell>
        <mxCell id="gMvGEAITRKUhcUgfvkka-15" value="新增订单" style="rounded=1;whiteSpace=wrap;html=1;" vertex="1" parent="1">
          <mxGeometry x="630" y="130" width="120" height="60" as="geometry" />
        </mxCell>
        <mxCell id="gMvGEAITRKUhcUgfvkka-20" style="edgeStyle=orthogonalEdgeStyle;rounded=0;orthogonalLoop=1;jettySize=auto;html=1;" edge="1" parent="1" source="gMvGEAITRKUhcUgfvkka-17" target="gMvGEAITRKUhcUgfvkka-15">
          <mxGeometry relative="1" as="geometry" />
        </mxCell>
        <mxCell id="gMvGEAITRKUhcUgfvkka-22" style="edgeStyle=orthogonalEdgeStyle;rounded=0;orthogonalLoop=1;jettySize=auto;html=1;entryX=0;entryY=0.5;entryDx=0;entryDy=0;" edge="1" parent="1" source="gMvGEAITRKUhcUgfvkka-17" target="gMvGEAITRKUhcUgfvkka-21">
          <mxGeometry relative="1" as="geometry" />
        </mxCell>
        <mxCell id="gMvGEAITRKUhcUgfvkka-17" value="主菜单" style="rounded=1;whiteSpace=wrap;html=1;" vertex="1" parent="1">
          <mxGeometry x="390" y="280" width="120" height="60" as="geometry" />
        </mxCell>
        <mxCell id="gMvGEAITRKUhcUgfvkka-25" style="edgeStyle=orthogonalEdgeStyle;rounded=0;orthogonalLoop=1;jettySize=auto;html=1;entryX=1;entryY=0.5;entryDx=0;entryDy=0;" edge="1" parent="1" target="gMvGEAITRKUhcUgfvkka-24">
          <mxGeometry relative="1" as="geometry">
            <mxPoint x="651" y="421" as="sourcePoint" />
          </mxGeometry>
        </mxCell>
        <mxCell id="gMvGEAITRKUhcUgfvkka-36" style="edgeStyle=orthogonalEdgeStyle;rounded=0;orthogonalLoop=1;jettySize=auto;html=1;entryX=0.5;entryY=0;entryDx=0;entryDy=0;" edge="1" parent="1" source="gMvGEAITRKUhcUgfvkka-21" target="gMvGEAITRKUhcUgfvkka-31">
          <mxGeometry relative="1" as="geometry" />
        </mxCell>
        <mxCell id="gMvGEAITRKUhcUgfvkka-37" style="edgeStyle=orthogonalEdgeStyle;rounded=0;orthogonalLoop=1;jettySize=auto;html=1;" edge="1" parent="1" source="gMvGEAITRKUhcUgfvkka-21" target="gMvGEAITRKUhcUgfvkka-35">
          <mxGeometry relative="1" as="geometry" />
        </mxCell>
        <mxCell id="gMvGEAITRKUhcUgfvkka-38" style="edgeStyle=orthogonalEdgeStyle;rounded=0;orthogonalLoop=1;jettySize=auto;html=1;exitX=0.75;exitY=1;exitDx=0;exitDy=0;entryX=0.5;entryY=0;entryDx=0;entryDy=0;" edge="1" parent="1" source="gMvGEAITRKUhcUgfvkka-21" target="gMvGEAITRKUhcUgfvkka-32">
          <mxGeometry relative="1" as="geometry" />
        </mxCell>
        <mxCell id="gMvGEAITRKUhcUgfvkka-41" style="edgeStyle=orthogonalEdgeStyle;rounded=0;orthogonalLoop=1;jettySize=auto;html=1;exitX=1;exitY=1;exitDx=0;exitDy=0;" edge="1" parent="1" source="gMvGEAITRKUhcUgfvkka-21">
          <mxGeometry relative="1" as="geometry">
            <mxPoint x="1160" y="770" as="targetPoint" />
          </mxGeometry>
        </mxCell>
        <mxCell id="gMvGEAITRKUhcUgfvkka-21" value="订单信息" style="rounded=1;whiteSpace=wrap;html=1;" vertex="1" parent="1">
          <mxGeometry x="640" y="360" width="120" height="60" as="geometry" />
        </mxCell>
        <mxCell id="gMvGEAITRKUhcUgfvkka-24" value="侧边数据栏" style="ellipse;whiteSpace=wrap;html=1;" vertex="1" parent="1">
          <mxGeometry x="440" y="520" width="120" height="80" as="geometry" />
        </mxCell>
        <mxCell id="gMvGEAITRKUhcUgfvkka-26" value="设备增改查" style="ellipse;whiteSpace=wrap;html=1;" vertex="1" parent="1">
          <mxGeometry x="640" y="650" width="120" height="80" as="geometry" />
        </mxCell>
        <mxCell id="gMvGEAITRKUhcUgfvkka-27" style="edgeStyle=orthogonalEdgeStyle;rounded=0;orthogonalLoop=1;jettySize=auto;html=1;entryX=-0.008;entryY=0.663;entryDx=0;entryDy=0;entryPerimeter=0;" edge="1" parent="1" source="gMvGEAITRKUhcUgfvkka-21" target="gMvGEAITRKUhcUgfvkka-26">
          <mxGeometry relative="1" as="geometry" />
        </mxCell>
        <mxCell id="gMvGEAITRKUhcUgfvkka-29" style="edgeStyle=orthogonalEdgeStyle;rounded=0;orthogonalLoop=1;jettySize=auto;html=1;entryX=0.442;entryY=-0.062;entryDx=0;entryDy=0;entryPerimeter=0;" edge="1" parent="1" source="gMvGEAITRKUhcUgfvkka-21" target="gMvGEAITRKUhcUgfvkka-30">
          <mxGeometry relative="1" as="geometry">
            <mxPoint x="778" y="690" as="targetPoint" />
            <Array as="points">
              <mxPoint x="780" y="390" />
              <mxPoint x="780" y="559" />
              <mxPoint x="779" y="559" />
              <mxPoint x="779" y="645" />
            </Array>
          </mxGeometry>
        </mxCell>
        <mxCell id="gMvGEAITRKUhcUgfvkka-30" value="发货单增改查" style="ellipse;whiteSpace=wrap;html=1;" vertex="1" parent="1">
          <mxGeometry x="800" y="650" width="120" height="80" as="geometry" />
        </mxCell>
        <mxCell id="gMvGEAITRKUhcUgfvkka-31" value="收货单" style="ellipse;whiteSpace=wrap;html=1;" vertex="1" parent="1">
          <mxGeometry x="950" y="650" width="120" height="80" as="geometry" />
        </mxCell>
        <mxCell id="gMvGEAITRKUhcUgfvkka-32" value="签收单" style="ellipse;whiteSpace=wrap;html=1;" vertex="1" parent="1">
          <mxGeometry x="630" y="770" width="120" height="80" as="geometry" />
        </mxCell>
        <mxCell id="gMvGEAITRKUhcUgfvkka-33" value="验收单" style="ellipse;whiteSpace=wrap;html=1;" vertex="1" parent="1">
          <mxGeometry x="790" y="770" width="120" height="80" as="geometry" />
        </mxCell>
        <mxCell id="gMvGEAITRKUhcUgfvkka-34" value="合同单" style="ellipse;whiteSpace=wrap;html=1;" vertex="1" parent="1">
          <mxGeometry x="950" y="770" width="120" height="80" as="geometry" />
        </mxCell>
        <mxCell id="gMvGEAITRKUhcUgfvkka-35" value="事件" style="ellipse;whiteSpace=wrap;html=1;" vertex="1" parent="1">
          <mxGeometry x="1100" y="770" width="120" height="80" as="geometry" />
        </mxCell>
        <mxCell id="gMvGEAITRKUhcUgfvkka-39" style="edgeStyle=orthogonalEdgeStyle;rounded=0;orthogonalLoop=1;jettySize=auto;html=1;exitX=1;exitY=1;exitDx=0;exitDy=0;entryX=0.442;entryY=0.013;entryDx=0;entryDy=0;entryPerimeter=0;" edge="1" parent="1" source="gMvGEAITRKUhcUgfvkka-21" target="gMvGEAITRKUhcUgfvkka-33">
          <mxGeometry relative="1" as="geometry" />
        </mxCell>
        <mxCell id="gMvGEAITRKUhcUgfvkka-40" style="edgeStyle=orthogonalEdgeStyle;rounded=0;orthogonalLoop=1;jettySize=auto;html=1;exitX=0.75;exitY=1;exitDx=0;exitDy=0;entryX=0.45;entryY=-0.037;entryDx=0;entryDy=0;entryPerimeter=0;" edge="1" parent="1" source="gMvGEAITRKUhcUgfvkka-21" target="gMvGEAITRKUhcUgfvkka-34">
          <mxGeometry relative="1" as="geometry" />
        </mxCell>
      </root>
    </mxGraphModel>
  </diagram>
</mxfile>
